<?xml version="1.0" encoding="UTF-8" standalone="no"?> <svg xmlns="http://www.w3.org/2000/svg" viewBox="0 0 64 64"><defs><style>.cls-1{fill:#70bdfb;stroke:#70bdfb;}.cls-1,.cls-4,.cls-5,.cls-6,.cls-8{stroke-linecap:round;}.cls-1,.cls-3,.cls-4,.cls-5,.cls-6,.cls-8{stroke-linejoin:round;stroke-width:2px;}.cls-2{fill:#f9cd75;}.cls-3,.cls-8{fill:none;}.cls-3{stroke:#6887fc;stroke-linecap:square;}.cls-4{fill:#ffe082;stroke:#ffe082;}.cls-5{fill:#cfd8dc;stroke:#cfd8dc;}.cls-6{fill:#7f65c4;stroke:#7f65c4;}.cls-7{fill:#f98af9;}.cls-8{stroke:#3eb41d;}</style></defs><title>vr-right</title><g id="vr-right"><path class="cls-1" d="M47.26,49H37V39H27V49H17.74C12.91,49,9,52.35,9,56.49V62H55V55.63C55,52,51.54,49,47.26,49Z"/><path class="cls-2" d="M37.29,51,32,55l-5.29-4A3.71,3.71,0,0,1,23,47.29V41H41v6.29A3.71,3.71,0,0,1,37.29,51Z"/><line class="cls-3" x1="19" y1="57" x2="19" y2="62"/><line class="cls-3" x1="45" y1="57" x2="45" y2="62"/><path class="cls-4" d="M37.16,8.53l-4.9-.69A11.67,11.67,0,0,0,19.32,18.07L17.74,29.36a13.9,13.9,0,0,0,6,13.59h0a3,3,0,0,0,2.46,3.43l6.24.88a3,3,0,0,0,3.31-2.61h0A13.9,13.9,0,0,0,45.2,33.22l1.59-11.29A11.67,11.67,0,0,0,37.16,8.53Z"/><rect class="cls-5" x="15.28" y="15.02" width="34" height="21" rx="3.87" ry="3.87" transform="translate(3.87 -4.24) rotate(8)"/><rect class="cls-6" x="15.28" y="20.02" width="34" height="11" transform="translate(3.87 -4.24) rotate(8)"/><circle class="cls-7" cx="24.29" cy="24.9" r="2" transform="translate(-3.75 45.49) rotate(-82)"/><circle class="cls-7" cx="40.13" cy="27.13" r="2" transform="translate(7.68 63.09) rotate(-82)"/><path class="cls-8" d="M54.77,11.35C50.85,7.94,43.22,4.48,35,4"/><polyline class="cls-8" points="50.14 11.57 55.21 12.13 54.51 7.71"/></g></svg>